<svg width="24" height="24" viewBox="0 0 24 24" fill="currentColor" xmlns="http://www.w3.org/2000/svg">
<g clip-path="url(#clip0_295681_149)">
<path d="M23.204 16.3491L20.4374 5.4375C20.3646 5.15344 20.2105 4.89677 19.9941 4.69895C19.7776 4.50113 19.5081 4.37074 19.2187 4.32375L15.8381 3.76875C15.4654 3.70881 15.0837 3.78962 14.7673 3.99547C14.4509 4.20132 14.2224 4.5175 14.1262 4.8825L14.1065 4.96219C14.0937 5.01282 14.0917 5.06555 14.1005 5.11701C14.1093 5.16847 14.1288 5.21752 14.1576 5.26103C14.1865 5.30453 14.2241 5.34154 14.2681 5.36966C14.3121 5.39779 14.3615 5.41643 14.4131 5.42438C15.1888 5.53822 15.9541 5.71442 16.7015 5.95125C16.8883 6.00763 17.0468 6.13297 17.1446 6.30184C17.2424 6.47071 17.2724 6.67048 17.2284 6.86062C17.2031 6.95971 17.1578 7.05257 17.0953 7.13351C17.0327 7.21445 16.9543 7.28174 16.8649 7.33127C16.7754 7.38079 16.6767 7.41149 16.575 7.42148C16.4732 7.43148 16.3704 7.42055 16.2731 7.38937C13.4998 6.53886 10.5357 6.53559 7.76055 7.38C7.57274 7.44315 7.36783 7.43153 7.18836 7.34756C7.00889 7.26358 6.86867 7.11371 6.7968 6.92906C6.76264 6.83431 6.74792 6.73365 6.75351 6.63309C6.7591 6.53253 6.78489 6.43412 6.82933 6.34374C6.87378 6.25336 6.93598 6.17286 7.01221 6.10703C7.08844 6.04121 7.17715 5.99142 7.27305 5.96063C8.0298 5.71958 8.80484 5.54025 9.59055 5.42438C9.64215 5.41643 9.69152 5.39779 9.7355 5.36966C9.77948 5.34154 9.81711 5.30453 9.84597 5.26103C9.87483 5.21752 9.89428 5.16847 9.90309 5.11701C9.91189 5.06555 9.90986 5.01282 9.89711 4.96219L9.87743 4.8825C9.78119 4.51719 9.55234 4.20081 9.2355 3.99507C8.91866 3.78933 8.53654 3.70898 8.16368 3.76969L4.78117 4.32469C4.49184 4.37161 4.22245 4.50186 4.00599 4.6995C3.78953 4.89715 3.63539 5.15361 3.56242 5.4375L0.795862 16.3491C0.709118 16.692 0.74687 17.0547 0.902403 17.3724C1.05794 17.6902 1.32116 17.9425 1.64524 18.0844L7.92649 20.8697C8.11536 20.9537 8.3194 20.9981 8.52608 21.0003C8.73276 21.0025 8.93771 20.9625 9.12834 20.8826C9.31896 20.8027 9.49123 20.6846 9.63456 20.5357C9.77789 20.3868 9.88925 20.2101 9.9618 20.0166L10.289 19.1306C10.3085 19.0776 10.3157 19.0208 10.3102 18.9645C10.3046 18.9082 10.2864 18.854 10.257 18.8057C10.2275 18.7575 10.1875 18.7165 10.1399 18.686C10.0924 18.6554 10.0385 18.6359 9.98243 18.6291C9.07168 18.5188 8.17314 18.3242 7.29836 18.0478C7.11228 17.9913 6.95455 17.8663 6.85696 17.698C6.75936 17.5298 6.72916 17.3309 6.77242 17.1412C6.7975 17.0419 6.84268 16.9487 6.90516 16.8675C6.96764 16.7863 7.04611 16.7187 7.13572 16.669C7.22532 16.6193 7.32417 16.5884 7.42615 16.5784C7.52813 16.5684 7.63109 16.5793 7.72868 16.6106C10.5124 17.4631 13.4875 17.4631 16.2712 16.6106C16.3686 16.5795 16.4714 16.5686 16.5733 16.5786C16.6751 16.5887 16.7738 16.6195 16.8633 16.6691C16.9528 16.7187 17.0311 16.7861 17.0936 16.8671C17.1561 16.9482 17.2013 17.0411 17.2265 17.1403C17.2703 17.3301 17.2403 17.5294 17.1426 17.6979C17.045 17.8664 16.887 17.9914 16.7006 18.0478C15.8261 18.3243 14.9279 18.5189 14.0174 18.6291C13.9613 18.6359 13.9075 18.6554 13.8599 18.686C13.8124 18.7165 13.7724 18.7575 13.7429 18.8057C13.7134 18.854 13.6952 18.9082 13.6897 18.9645C13.6841 19.0208 13.6914 19.0776 13.7109 19.1306L14.0381 20.0166C14.1107 20.21 14.2221 20.3866 14.3655 20.5354C14.5088 20.6843 14.6811 20.8023 14.8717 20.8822C15.0623 20.962 15.2672 21.0021 15.4738 21C15.6805 20.9979 15.8845 20.9535 16.0734 20.8697L22.3546 18.0844C22.6787 17.9425 22.9419 17.6902 23.0974 17.3724C23.253 17.0547 23.2907 16.692 23.204 16.3491ZM8.62493 14.25C8.40242 14.25 8.18491 14.184 7.99991 14.0604C7.8149 13.9368 7.67071 13.7611 7.58556 13.5555C7.50041 13.35 7.47813 13.1238 7.52154 12.9055C7.56495 12.6873 7.6721 12.4868 7.82943 12.3295C7.98676 12.1722 8.18722 12.065 8.40545 12.0216C8.62368 11.9782 8.84988 12.0005 9.05544 12.0856C9.26101 12.1708 9.43671 12.315 9.56033 12.5C9.68395 12.685 9.74993 12.9025 9.74993 13.125C9.74992 13.4234 9.6314 13.7095 9.42042 13.9205C9.20944 14.1315 8.92329 14.25 8.62493 14.25ZM15.3749 14.25C15.1524 14.25 14.9349 14.184 14.7499 14.0604C14.5649 13.9368 14.4207 13.7611 14.3356 13.5555C14.2504 13.35 14.2281 13.1238 14.2715 12.9055C14.3149 12.6873 14.4221 12.4868 14.5794 12.3295C14.7368 12.1722 14.9372 12.065 15.1554 12.0216C15.3737 11.9782 15.5999 12.0005 15.8054 12.0856C16.011 12.1708 16.1867 12.315 16.3103 12.5C16.4339 12.685 16.4999 12.9025 16.4999 13.125C16.4999 13.4234 16.3814 13.7095 16.1704 13.9205C15.9594 14.1315 15.6733 14.25 15.3749 14.25Z" fill="currentColor"/>
</g>
<defs>
<clipPath id="clip0_295681_149">
<rect width="24" height="24" fill="currentColor"/>
</clipPath>
</defs>
</svg>
