<svg width="36" height="40" viewBox="0 0 36 40" fill="none" xmlns="http://www.w3.org/2000/svg">
<path d="M15 1.73204C16.8564 0.660243 19.1435 0.660243 21 1.73204L32.3205 8.26794C34.1769 9.33974 35.3205 11.3205 35.3205 13.4641V26.5359C35.3205 28.6795 34.1769 30.6602 32.3205 31.732L21 38.2679C19.1435 39.3397 16.8564 39.3397 15 38.2679L3.67944 31.732C1.82304 30.6602 0.679443 28.6795 0.679443 26.5359L0.679443 13.4641C0.679443 11.3205 1.82304 9.33973 3.67944 8.26794L15 1.73204Z" fill="#F7FC0E"/>
<path d="M12.3752 19.1734L18.1298 9.625V9.62954L18.1312 9.625L23.8849 19.1721L23.888 19.1735L18.1333 22.5751V22.5741L18.1312 22.5753L18.1298 22.574V22.5751L12.3752 19.1734Z" fill="black"/>
<path d="M18.1298 28.371V28.375L12.375 20.2655L18.1298 23.6654V23.6671L18.1312 23.6654L23.8894 20.2655L18.1312 28.375L18.1298 28.371Z" fill="black"/>
</svg>
