<svg width="24" height="24" viewBox="0 0 24 24" fill="none" xmlns="http://www.w3.org/2000/svg">
<g clip-path="url(#clip0_295681_154)">
<path d="M11.8519 2.25001C6.63098 2.3297 2.36348 6.57095 2.25004 11.7947C2.21031 13.5517 2.6484 15.2866 3.51754 16.8141C3.55168 16.8738 3.60158 16.9229 3.66179 16.9562C3.722 16.9895 3.79019 17.0055 3.85891 17.0026C3.92763 16.9997 3.99423 16.9779 4.05142 16.9397C4.1086 16.9015 4.15418 16.8483 4.18316 16.7859C4.88727 15.2905 5.25131 13.6576 5.2491 12.0047C5.24744 10.9923 5.47428 9.99251 5.91272 9.07993C6.35115 8.16735 6.98987 7.36548 7.78129 6.73407C7.85891 6.67338 7.94773 6.62856 8.04267 6.60219C8.13762 6.57582 8.23682 6.56841 8.33463 6.58038C8.43243 6.59235 8.52692 6.62347 8.61271 6.67196C8.69849 6.72045 8.77388 6.78535 8.83457 6.86298C8.89527 6.9406 8.94008 7.02942 8.96645 7.12436C8.99282 7.2193 9.00023 7.31851 8.98826 7.41632C8.97629 7.51412 8.94517 7.60861 8.89668 7.69439C8.8482 7.78017 8.78329 7.85556 8.70566 7.91626C8.09385 8.40777 7.60042 9.0306 7.2619 9.73864C6.92338 10.4467 6.74844 11.2218 6.75004 12.0066C6.75251 14.2582 6.1555 16.4699 5.02035 18.4144C4.97827 18.4858 4.96106 18.5692 4.97141 18.6515C4.98176 18.7337 5.01908 18.8103 5.07754 18.8691C5.26504 19.0566 5.46098 19.2441 5.66348 19.4147C5.70498 19.4496 5.75354 19.475 5.80583 19.4893C5.85811 19.5036 5.91287 19.5064 5.96633 19.4975C6.0198 19.4886 6.07069 19.4682 6.11552 19.4377C6.16034 19.4072 6.19803 19.3674 6.22598 19.3209C7.05593 17.9431 7.64528 16.4341 7.96879 14.8584C8.00845 14.6635 8.12392 14.4923 8.2898 14.3825C8.45568 14.2727 8.65839 14.2333 8.85332 14.273C9.04825 14.3126 9.21945 14.4281 9.32925 14.594C9.43904 14.7599 9.47845 14.9626 9.43879 15.1575C9.07614 16.9354 8.40779 18.6369 7.46348 20.1863C7.43684 20.2303 7.41957 20.2794 7.41272 20.3304C7.40587 20.3814 7.4096 20.4333 7.42367 20.4828C7.43774 20.5323 7.46185 20.5784 7.49451 20.6182C7.52716 20.658 7.56766 20.6906 7.61348 20.7141C7.84504 20.8313 8.08223 20.94 8.32316 21.0394C8.40636 21.075 8.49964 21.0794 8.58579 21.0516C8.67194 21.0239 8.74515 20.9659 8.79191 20.8884C10.4026 18.2131 11.2525 15.149 11.25 12.0263C11.2481 11.8337 11.3188 11.6476 11.4481 11.5049C11.5774 11.3622 11.7558 11.2736 11.9475 11.2566C12.0504 11.2494 12.1536 11.2634 12.2507 11.2979C12.3478 11.3323 12.4368 11.3864 12.5121 11.4568C12.5874 11.5272 12.6474 11.6123 12.6884 11.7069C12.7293 11.8015 12.7503 11.9035 12.75 12.0066C12.7538 15.1949 11.94 18.331 10.3866 21.1153C10.3567 21.1686 10.3403 21.2285 10.3388 21.2896C10.3373 21.3507 10.3508 21.4113 10.378 21.466C10.4053 21.5207 10.4455 21.5679 10.4952 21.6035C10.5449 21.6392 10.6026 21.6621 10.6632 21.6703C10.9475 21.7097 11.2354 21.7366 11.5266 21.7509C11.5966 21.7535 11.666 21.7365 11.7268 21.7017C11.7876 21.6669 11.8374 21.6158 11.8707 21.5541C13.4298 18.6376 14.247 15.3821 14.25 12.075C14.2547 10.8328 13.2844 9.77907 12.0432 9.75563C11.7446 9.74991 11.4478 9.80369 11.1702 9.91385C10.8926 10.024 10.6397 10.1883 10.4262 10.3972C10.2128 10.6061 10.0431 10.8554 9.92697 11.1306C9.81088 11.4058 9.75073 11.7013 9.75004 12C9.74867 12.1873 9.67812 12.3675 9.55197 12.5059C9.42582 12.6444 9.25296 12.7313 9.0666 12.75C8.96266 12.7593 8.85793 12.7467 8.75911 12.7132C8.66029 12.6797 8.56955 12.6259 8.4927 12.5553C8.41584 12.4847 8.35456 12.3989 8.31278 12.3033C8.271 12.2077 8.24963 12.1044 8.25004 12C8.25001 11.5042 8.3483 11.0133 8.53921 10.5558C8.73012 10.0982 9.00987 9.68308 9.36227 9.33434C9.71467 8.9856 10.1327 8.7102 10.5923 8.52408C11.0518 8.33796 11.5437 8.2448 12.0394 8.25001C14.1019 8.27157 15.7594 10.0472 15.7491 12.1088C15.74 15.1666 15.0844 18.188 13.8254 20.9747C13.7967 21.0389 13.7867 21.1098 13.7965 21.1794C13.8062 21.249 13.8354 21.3145 13.8805 21.3683C13.9257 21.4222 13.985 21.4622 14.0519 21.484C14.1187 21.5057 14.1903 21.5082 14.2585 21.4913C14.5837 21.4141 14.9048 21.3203 15.2204 21.21C15.2695 21.1926 15.3145 21.165 15.3525 21.1292C15.3904 21.0934 15.4204 21.05 15.4407 21.0019C15.8772 19.9673 16.237 18.9019 16.5169 17.8144C16.5415 17.719 16.5847 17.6293 16.644 17.5506C16.7032 17.4719 16.7774 17.4056 16.8623 17.3555C16.9472 17.3055 17.0411 17.2726 17.1387 17.2589C17.2362 17.2451 17.3356 17.2507 17.431 17.2753C17.5264 17.2999 17.616 17.3431 17.6947 17.4024C17.7735 17.4616 17.8398 17.5358 17.8898 17.6207C17.9399 17.7056 17.9727 17.7995 17.9865 17.8971C18.0003 17.9946 17.9947 18.094 17.97 18.1894C17.9 18.4625 17.825 18.7344 17.745 19.005C17.7215 19.0829 17.7239 19.1664 17.752 19.2428C17.7801 19.3192 17.8322 19.3844 17.9006 19.4285C17.969 19.4727 18.0499 19.4934 18.1311 19.4875C18.2123 19.4816 18.2894 19.4495 18.3507 19.3959C19.871 18.0904 20.9521 16.3482 21.4469 14.4063C21.9417 12.4644 21.8261 10.4172 21.1159 8.54329C20.4056 6.66943 19.1353 5.05993 17.4776 3.93385C15.82 2.80778 13.8556 2.21982 11.8519 2.25001ZM18.5625 15.1013C18.5397 15.2822 18.4518 15.4487 18.3151 15.5695C18.1784 15.6903 18.0024 15.7571 17.82 15.7575C17.7887 15.7575 17.7574 15.7556 17.7263 15.7519C17.6285 15.7397 17.5341 15.7084 17.4485 15.6597C17.3628 15.6111 17.2876 15.546 17.2271 15.4683C17.1666 15.3905 17.122 15.3016 17.0958 15.2066C17.0697 15.1117 17.0625 15.0125 17.0747 14.9147C17.1943 13.9506 17.2544 12.98 17.2547 12.0084C17.2527 10.6167 16.699 9.28246 15.7148 8.29833C14.7307 7.31419 13.3965 6.76043 12.0047 6.75845C11.7854 6.75835 11.5662 6.77181 11.3485 6.79876C11.1509 6.82362 10.9516 6.76899 10.7943 6.64689C10.6371 6.52479 10.5347 6.34521 10.5099 6.14766C10.485 5.95012 10.5396 5.75079 10.6618 5.59352C10.7839 5.43625 10.9634 5.33394 11.161 5.30907C12.1113 5.19086 13.0759 5.27593 13.9908 5.55863C14.9058 5.84134 15.7502 6.31523 16.4682 6.94892C17.1862 7.5826 17.7613 8.36162 18.1555 9.23436C18.5497 10.1071 18.754 11.0536 18.7547 12.0113C18.7545 13.0442 18.6903 14.0762 18.5625 15.1013Z" fill="currentColor"/>
</g>
<defs>
<clipPath id="clip0_295681_154">
<rect width="24" height="24" fill="white"/>
</clipPath>
</defs>
</svg>
